<svg width="31" height="29" viewBox="0 0 31 29" fill="none" xmlns="http://www.w3.org/2000/svg">
<path d="M28.7857 11.6205H18.8214V3.57553C18.8214 2.58835 17.8298 1.78777 16.6071 1.78777H14.3929C13.1702 1.78777 12.1786 2.58835 12.1786 3.57553V11.6205H2.21429C0.991585 11.6205 0 12.421 0 13.4082V15.196C0 16.1832 0.991585 16.9838 2.21429 16.9838H12.1786V25.0287C12.1786 26.0159 13.1702 26.8165 14.3929 26.8165H16.6071C17.8298 26.8165 18.8214 26.0159 18.8214 25.0287V16.9838H28.7857C30.0084 16.9838 31 16.1832 31 15.196V13.4082C31 12.421 30.0084 11.6205 28.7857 11.6205Z" fill="#F6F6E9"/>
</svg>
