<svg width="46" height="59" viewBox="0 0 46 59" fill="none" xmlns="http://www.w3.org/2000/svg">
<path d="M45.9673 22.125C45.9673 29.8227 41.8853 36.5984 35.6965 40.5625H10.2708C4.08199 36.5984 0 29.8227 0 22.125C0 9.91015 10.2948 0 22.9836 0C35.6725 0 45.9673 9.91015 45.9673 22.125ZM28.9809 29.5691C28.9809 31.701 27.1853 33.4295 24.9708 33.4295C24.3842 33.4295 23.8814 34.0172 24.3244 34.3975C25.0306 34.9967 25.9643 35.3654 26.9699 35.3654C29.1844 35.3654 30.98 33.6369 30.98 31.5051C30.98 30.5256 30.597 29.6383 29.9745 28.9584C29.5795 28.532 28.969 29.016 28.969 29.5807L28.9809 29.5691ZM22.7203 23.8881C22.1337 23.8881 21.631 24.4758 22.0739 24.8561C22.7801 25.4553 23.7139 25.824 24.7194 25.824C26.934 25.824 28.7296 24.0955 28.7296 21.9637C28.7296 20.9842 28.3465 20.0969 27.724 19.417C27.329 18.9906 26.7185 19.4746 26.7185 20.0393C26.7185 22.1711 24.9229 23.8996 22.7083 23.8996L22.7203 23.8881ZM36.307 21.8715C36.307 24.0033 34.5114 25.7318 32.2968 25.7318C31.7103 25.7318 31.2075 26.3195 31.6504 26.6998C32.3567 27.299 33.2904 27.6678 34.2959 27.6678C36.5105 27.6678 38.3061 25.9393 38.3061 23.8074C38.3061 22.8279 37.923 21.9406 37.3005 21.2607C36.9055 20.8344 36.295 21.3184 36.295 21.883L36.307 21.8715ZM11.4918 47.9375C11.4918 45.8978 13.2036 44.25 15.3224 44.25H30.6449C32.7637 44.25 34.4755 45.8978 34.4755 47.9375C34.4755 49.9771 32.7637 51.625 30.6449 51.625H28.7296C27.6761 51.625 26.8143 52.4547 26.8143 53.4687V55.3125C26.8143 57.3521 25.1025 59 22.9836 59C20.8648 59 19.153 57.3521 19.153 55.3125V53.4687C19.153 52.4547 18.2912 51.625 17.2377 51.625H15.3224C13.2036 51.625 11.4918 49.9771 11.4918 47.9375Z" fill="white"/>
</svg>
