<svg width="26" height="22" viewBox="0 0 26 22" fill="none" xmlns="http://www.w3.org/2000/svg">
<path d="M23.9778 22L14.8778 14.3C14.1556 14.7889 13.325 15.1759 12.3861 15.4611C11.4472 15.7463 10.4481 15.8889 9.38889 15.8889C6.76482 15.8889 4.54422 15.1197 2.72711 13.5813C0.910001 12.043 0.000963727 10.164 7.64256e-07 7.94444C-0.000962199 5.72489 0.908075 3.84593 2.72711 2.30756C4.54615 0.769185 6.76674 0 9.38889 0C12.011 0 14.2321 0.769185 16.0521 2.30756C17.8721 3.84593 18.7807 5.72489 18.7778 7.94444C18.7778 8.84074 18.6093 9.68611 18.2722 10.4806C17.9352 11.275 17.4778 11.9778 16.9 12.5889L26 20.2889L23.9778 22ZM9.38889 13.4444C11.1944 13.4444 12.7294 12.9099 13.9938 11.8409C15.2581 10.7719 15.8899 9.47304 15.8889 7.94444C15.8879 6.41585 15.2562 5.11744 13.9938 4.04922C12.7313 2.981 11.1964 2.44607 9.38889 2.44444C7.58141 2.44281 6.04693 2.97774 4.78545 4.04922C3.52396 5.1207 2.89178 6.41911 2.88889 7.94444C2.886 9.46978 3.51819 10.7686 4.78545 11.8409C6.0527 12.9132 7.58719 13.4477 9.38889 13.4444Z" fill="#675E5E"/>
</svg>
