<svg width="33" height="28" viewBox="0 0 33 28" fill="none" xmlns="http://www.w3.org/2000/svg">
<path d="M7.20361 17.2807C7.75198 19.0172 8.96035 20.5517 10.6413 21.6461C12.3223 22.7405 14.3819 23.3337 16.5007 23.3337C18.6195 23.3337 20.6791 22.7405 22.36 21.6461C24.041 20.5517 25.2494 19.0172 25.7977 17.2807" stroke="white" stroke-width="2"/>
<path d="M16.5 15.1667L15.6406 16.0767L16.5 16.66L17.3594 16.0767L16.5 15.1667ZM17.875 4.66667C17.875 4.35725 17.7301 4.0605 17.4723 3.84171C17.2144 3.62292 16.8647 3.5 16.5 3.5C16.1353 3.5 15.7856 3.62292 15.5277 3.84171C15.2699 4.0605 15.125 4.35725 15.125 4.66667H17.875ZM8.76562 11.41L15.6406 16.0767L17.3594 14.2567L10.4844 9.59L8.76562 11.41ZM17.3594 16.0767L24.2344 11.41L22.5156 9.59L15.6406 14.2567L17.3594 16.0767ZM17.875 15.1667V4.66667H15.125V15.1667H17.875Z" fill="white"/>
</svg>
