<svg width="35" height="39" viewBox="0 0 35 39" fill="none" xmlns="http://www.w3.org/2000/svg">
<path d="M34.7276 14.625C34.7276 19.7133 31.6437 24.1922 26.9682 26.8125H7.75946C3.08389 24.1922 0 19.7133 0 14.625C0 6.55078 7.77754 0 17.3638 0C26.9501 0 34.7276 6.55078 34.7276 14.625ZM21.8947 19.5457C21.8947 20.9549 20.5381 22.0975 18.8651 22.0975C18.4219 22.0975 18.0421 22.4859 18.3767 22.7373C18.9103 23.1334 19.6157 23.3771 20.3754 23.3771C22.0484 23.3771 23.405 22.2346 23.405 20.8254C23.405 20.1779 23.1156 19.5914 22.6453 19.142C22.3469 18.8602 21.8856 19.1801 21.8856 19.5533L21.8947 19.5457ZM17.1649 15.7904C16.7217 15.7904 16.3419 16.1789 16.6765 16.4303C17.2101 16.8264 17.9155 17.0701 18.6751 17.0701C20.3482 17.0701 21.7048 15.9275 21.7048 14.5184C21.7048 13.8709 21.4154 13.2844 20.9451 12.835C20.6467 12.5531 20.1854 12.873 20.1854 13.2463C20.1854 14.6555 18.8289 15.798 17.1558 15.798L17.1649 15.7904ZM27.4294 14.4574C27.4294 15.8666 26.0729 17.0092 24.3998 17.0092C23.9566 17.0092 23.5768 17.3977 23.9114 17.649C24.445 18.0451 25.1504 18.2889 25.9101 18.2889C27.5831 18.2889 28.9397 17.1463 28.9397 15.7371C28.9397 15.0896 28.6503 14.5031 28.18 14.0537C27.8816 13.7719 27.4204 14.0918 27.4204 14.465L27.4294 14.4574ZM8.68191 31.6875C8.68191 30.3393 9.97515 29.25 11.5759 29.25H23.1518C24.7525 29.25 26.0457 30.3393 26.0457 31.6875C26.0457 33.0357 24.7525 34.125 23.1518 34.125H21.7048C20.9089 34.125 20.2578 34.6734 20.2578 35.3437V36.5625C20.2578 37.9107 18.9645 39 17.3638 39C15.7631 39 14.4698 37.9107 14.4698 36.5625V35.3437C14.4698 34.6734 13.8187 34.125 13.0229 34.125H11.5759C9.97515 34.125 8.68191 33.0357 8.68191 31.6875Z" fill="#F6F6E9"/>
</svg>
